PathFileType	4	(X/Y/Z)	./resultDataOpenSim/trcMotMarkerGrf/sub10/qtm-01-03.trc
DataRate	CameraRate	NumFrames	NumMarkers	Units	OrigDataRate	OrigDataStartFrame	OrigNumFrames
250.000000	250.000000	14	24	m	250.000000	242	482
Frame#	Time	L.Toe.Tip			R.Toe.Tip			L.Ankle.Lat			R.Ankle.Lat			L.Ankle.Med			R.Ankle.Med			L.Heel			R.Heel			L.Knee.Lat			R.Knee.Lat			L.Knee.Med			R.Knee.Med			L.Thigh.Upper			R.Thigh.Upper			L.ASIS			R.ASIS			V.Sacral			L.Acromium			R.Acromium			C7			L.Elbow			R.Elbow			L.Wrist.Lat			R.Wrist.Lat
		X1	Y1	Z1	X2	Y2	Z2	X3	Y3	Z3	X4	Y4	Z4	X5	Y5	Z5	X6	Y6	Z6	X7	Y7	Z7	X8	Y8	Z8	X9	Y9	Z9	X10	Y10	Z10	X11	Y11	Z11	X12	Y12	Z12	X13	Y13	Z13	X14	Y14	Z14	X15	Y15	Z15	X16	Y16	Z16	X17	Y17	Z17	X18	Y18	Z18	X19	Y19	Z19	X20	Y20	Z20	X21	Y21	Z21	X22	Y22	Z22	X23	Y23	Z23	X24	Y24	Z24

242	0.964	0.060581163	0.042140541	-0.063773521	0.39977781	0.087530268	0.099814264	-0.071368635	0.068904523	-0.10356639	0.25457042	0.085272646	0.09298191	-0.071831642	0.091709086	-0.019098392	0.29695313	0.12170536	0.023116613	-0.14080197	0.041749192	-0.066188558	0.22824694	0.056584157	0.032176655	0.017035068	0.44711277	-0.13590792	0.23576376	0.48921447	0.13991454	0.0082775264	0.42676776	-0.012280278	0.27560849	0.50778229	0.019953344	0.066095154	0.84057194	-0.19671309	0.055342544	0.86318787	0.18363871	0.12200346	0.95116241	-0.12869486	0.12408535	0.95682622	0.1157349	-0.083526984	0.9692488	0.0029918964	0.087647694	1.420593	-0.15269032	0.043285568	1.4154559	0.16928344	-0.01611093	1.4505677	-0.0094111536	0.032272279	1.0796355	-0.21625173	-0.08557918	1.0947368	0.1848949	0.19460586	0.89875616	-0.24544819	-0.036977754	0.8639625	0.24655485
243	0.968	0.060721301	0.042155068	-0.063955228	0.41943865	0.090803878	0.10069755	-0.071319109	0.069039602	-0.1034438	0.27411728	0.083954889	0.094048179	-0.071572255	0.091825796	-0.018872124	0.31534128	0.12162003	0.024124033	-0.14078917	0.042062762	-0.066011073	0.24863599	0.054537297	0.033368039	0.01888459	0.4467882	-0.13608606	0.24204849	0.48745049	0.14057882	0.010364454	0.42636599	-0.012372979	0.28127505	0.50618816	0.020553743	0.070120601	0.83994134	-0.19662029	0.062011499	0.86265697	0.18370504	0.12679007	0.95038229	-0.12907533	0.13090128	0.95611376	0.11555514	-0.077243499	0.96839381	0.0038462998	0.093214874	1.4198111	-0.15262	0.049055028	1.4146307	0.169387	-0.010410309	1.4497297	-0.0093404256	0.039839769	1.0783201	-0.2165585	-0.081861336	1.0950006	0.18486764	0.20507554	0.89965048	-0.24469779	-0.035649774	0.86405455	0.2475261
244	0.972	0.060856593	0.042149857	-0.064094013	0.43881568	0.094467888	0.10148974	-0.071264302	0.069203797	-0.10333498	0.29358342	0.082930753	0.09529541	-0.071309679	0.091940879	-0.018661629	0.33340993	0.12182028	0.025210875	-0.14076031	0.042379286	-0.065760564	0.26882993	0.05279781	0.034739994	0.020824008	0.44647084	-0.13624117	0.24825801	0.48550146	0.14127752	0.012543561	0.42596104	-0.012465763	0.28690339	0.50436959	0.021151272	0.074178759	0.83930995	-0.19646964	0.068906151	0.86203942	0.18382854	0.13150744	0.94955763	-0.1294778	0.13780543	0.95533922	0.11542574	-0.070768324	0.96715942	0.0039449744	0.098789825	1.4189655	-0.15254478	0.054843947	1.4137426	0.16948923	-0.0047636682	1.4488552	-0.0090214252	0.047485272	1.0769399	-0.21655639	-0.078420973	1.0952512	0.18496346	0.21552094	0.9005436	-0.24391663	-0.034351195	0.86410724	0.24844349
245	0.976	0.060954754	0.04212284	-0.064174643	0.45785987	0.098552306	0.10219029	-0.071207361	0.069406548	-0.1032476	0.31287792	0.082252598	0.096699774	-0.071064353	0.092056591	-0.01847933	0.35114617	0.12230576	0.026380319	-0.14072244	0.042697994	-0.065459812	0.28879442	0.051367478	0.036293696	0.022850457	0.44615797	-0.13636307	0.25442209	0.48340021	0.14199495	0.0148165	0.42555057	-0.012565084	0.29251338	0.50233438	0.021725538	0.078237496	0.83868501	-0.19633932	0.075971178	0.86132001	0.1839906	0.13617749	0.94870087	-0.12989033	0.14482815	0.95451207	0.11536401	-0.063647862	0.96496102	0.0024288742	0.10436842	1.4180564	-0.15246752	0.060635331	1.4127934	0.16959824	0.00087080797	1.4479558	-0.0086242259	0.055253712	1.0754962	-0.21611776	-0.075304841	1.0954969	0.18528677	0.2259214	0.9014277	-0.24310434	-0.03323272	0.86408773	0.24924297
246	0.98	0.061024817	0.042083183	-0.064220871	0.47652589	0.1030448	0.10278818	-0.071136953	0.069621634	-0.10315714	0.33192147	0.081987224	0.098261484	-0.070839456	0.092168042	-0.018328174	0.36854294	0.12305924	0.027632041	-0.14068149	0.043020132	-0.065126814	0.30848784	0.050252181	0.038039386	0.02497389	0.44584513	-0.1364473	0.26056208	0.48118132	0.14272346	0.01717484	0.4251325	-0.012683951	0.29811376	0.50009318	0.022253439	0.082299414	0.83807387	-0.19626998	0.083137527	0.86048341	0.18416901	0.1408883	0.94784319	-0.13027227	0.15193263	0.95363151	0.11535053	-0.056085921	0.96190967	-0.00048922992	0.10994362	1.4170812	-0.15238958	0.066428816	1.411779	0.1697149	0.0065290268	1.447016	-0.0082750512	0.063095347	1.0740035	-0.21541882	-0.07237208	1.0957239	0.18578578	0.23626504	0.90229887	-0.24225891	-0.032203977	0.86401447	0.24994179
247	0.984	0.061083625	0.042039719	-0.064255115	0.49476735	0.10786457	0.10324979	-0.071033612	0.069806157	-0.10302167	0.35063952	0.082202994	0.09999396	-0.070605997	0.09227231	-0.018176902	0.38558648	0.12406106	0.028961373	-0.14063744	0.043348574	-0.064775344	0.32787156	0.049457318	0.039986014	0.027209647	0.44552738	-0.13649227	0.26669363	0.47887923	0.14346278	0.019595113	0.42471083	-0.012808835	0.30371478	0.49766747	0.022721222	0.086365655	0.83747854	-0.19626284	0.090413692	0.85954041	0.1843785	0.14572013	0.9470111	-0.13057908	0.15902001	0.95268906	0.11533474	-0.049116758	0.95886204	-0.0031191109	0.11551245	1.4160378	-0.15230998	0.072235138	1.4107001	0.16983218	0.012212171	1.4460146	-0.0080003972	0.07091221	1.0724768	-0.21476569	-0.069455388	1.0959143	0.18633912	0.24655099	0.90315831	-0.24137768	-0.030971209	0.86395733	0.2506507
248	0.988	0.061141209	0.041996797	-0.064287057	0.51254225	0.11291549	0.10356929	-0.070886638	0.06993611	-0.10281528	0.36897568	0.082907755	0.10189666	-0.070324968	0.092374171	-0.01797951	0.40225247	0.12529552	0.030360546	-0.14058729	0.043690086	-0.064423503	0.34690667	0.048985023	0.042121051	0.029564444	0.4451992	-0.1364992	0.27283857	0.47653133	0.14421975	0.022064206	0.42429445	-0.01288634	0.30933487	0.49508971	0.023123009	0.090420251	0.83689336	-0.196303	0.09788477	0.85851858	0.1846713	0.15067758	0.94621198	-0.13078928	0.16601465	0.95167873	0.11527807	-0.043162377	0.95646783	-0.0039998244	0.1210778	1.4149268	-0.15222634	0.078057244	1.4095656	0.1699453	0.017902643	1.4449415	-0.0077665021	0.078637697	1.0709167	-0.21434734	-0.066457586	1.0960553	0.18686133	0.25678064	0.90400846	-0.24046211	-0.029361824	0.86396031	0.25146751
249	0.992	0.061201832	0.041954504	-0.064319328	0.52982192	0.11814769	0.10383814	-0.070701707	0.070021105	-0.10254401	0.3869183	0.084002808	0.10392856	-0.06998422	0.092480582	-0.01772368	0.4185105	0.12674562	0.031821725	-0.14053265	0.044056921	-0.064081821	0.36554495	0.048833753	0.044407159	0.032038205	0.44485918	-0.13647907	0.27902685	0.47418146	0.14500674	0.024593779	0.42388933	-0.012860726	0.31499219	0.49239687	0.023450779	0.094477403	0.83631812	-0.196347	0.10559049	0.85742365	0.18507114	0.15571976	0.94544563	-0.1309072	0.1729285	0.95060312	0.11518737	-0.037816706	0.9547044	-0.0030074043	0.12664513	1.4137511	-0.15213336	0.083886431	1.4083827	0.17005807	0.023588522	1.4438	-0.0075367515	0.086243365	1.0693095	-0.214219	-0.063355689	1.0961374	0.18733111	0.26695394	0.90485092	-0.23951787	-0.027455243	0.86400302	0.25239434
250	0.996	0.061266298	0.041911058	-0.0643536	0.54659143	0.12352947	0.10417275	-0.070500125	0.070100383	-0.10224751	0.40448012	0.085345604	0.10602557	-0.069594585	0.092597823	-0.017440998	0.43432718	0.12838773	0.033335114	-0.14048675	0.044465294	-0.063741708	0.3837268	0.048995078	0.046803443	0.034640019	0.44451799	-0.13645639	0.28529153	0.47187871	0.1458398	0.027186574	0.42348771	-0.012712716	0.32069772	0.48962441	0.0236912	0.098606314	0.8357643	-0.1963143	0.11340407	0.85621849	0.18550485	0.16076713	0.94470202	-0.13097764	0.17983604	0.94947153	0.11510316	-0.032788859	0.95329363	-0.00067633023	0.1322173	1.4125144	-0.15202476	0.089709873	1.4071498	0.17017809	0.029268602	1.4425956	-0.0072981911	0.093719892	1.0676428	-0.21434518	-0.060164245	1.0961558	0.18776387	0.27706895	0.90568638	-0.23855004	-0.025420511	0.86404182	0.25336418
251	1	0.061333199	0.041866798	-0.064393019	0.56283634	0.12899162	0.10455769	-0.07030995	0.070216491	-0.10196673	0.42164023	0.086862165	0.10814588	-0.069160743	0.09273625	-0.01717733	0.44966597	0.13019276	0.03488577	-0.1404739	0.044931249	-0.063380987	0.40139386	0.049445698	0.049281245	0.037396065	0.44418532	-0.13646229	0.29166573	0.46967288	0.14673838	0.029828596	0.42305878	-0.012457087	0.32645599	0.48680439	0.023832727	0.10284541	0.83523946	-0.19615798	0.12114231	0.85485638	0.18587013	0.16570045	0.94394856	-0.1310743	0.18679271	0.94829118	0.11506001	-0.027932937	0.95197404	0.0023318741	0.13779059	1.4112197	-0.15189965	0.095516581	1.4058634	0.17030865	0.034944226	1.4413309	-0.0070547376	0.10111262	1.0659175	-0.21453227	-0.056915458	1.0961206	0.18818447	0.28712776	0.90651628	-0.23755758	-0.023379733	0.86404586	0.25431149
252	1.004	0.061399429	0.04182758	-0.064439157	0.57853628	0.13443039	0.10487245	-0.07015319	0.070385196	-0.10169734	0.43833712	0.088557821	0.11027575	-0.06868176	0.09290993	-0.016957487	0.46449539	0.1321283	0.036450781	-0.14050844	0.045459765	-0.06298154	0.41850255	0.050146524	0.051815545	0.040326628	0.44383606	-0.13650547	0.2981744	0.46760268	0.14771592	0.032535017	0.42256089	-0.012124355	0.33226871	0.48396343	0.023879873	0.10712883	0.83473434	-0.19592699	0.12879818	0.853335	0.1861723	0.17048474	0.94315706	-0.13121429	0.19378598	0.94706194	0.11506307	-0.02290058	0.95044698	0.0052184966	0.14335715	1.4098685	-0.15176453	0.10130439	1.4045264	0.17044698	0.040613855	1.4400133	-0.006813467	0.10853011	1.0641423	-0.21453684	-0.05365713	1.0960659	0.18861778	0.29714275	0.90734407	-0.23653197	-0.021377725	0.86400128	0.25521131
253	1.008	0.061458931	0.041803173	-0.064481393	0.59367904	0.13973149	0.10506154	-0.070034942	0.070604387	-0.10140936	0.4545199	0.0904248	0.11240038	-0.068176265	0.093128402	-0.016759411	0.47880616	0.13414908	0.038005038	-0.14056266	0.046031045	-0.06254343	0.43501783	0.051054542	0.054366319	0.043402423	0.44341157	-0.13653996	0.30482318	0.46568289	0.14876691	0.03537575	0.4219818	-0.011763072	0.33813719	0.48111808	0.023866063	0.11136454	0.83423063	-0.19570263	0.13650832	0.85169176	0.18649542	0.17521635	0.94233042	-0.1313371	0.20077183	0.9457826	0.11509596	-0.017037862	0.94843626	0.0071713924	0.14891987	1.4084612	-0.15162608	0.10708297	1.4031478	0.17059083	0.0462741	1.4386515	-0.0065807754	0.11607262	1.0623233	-0.21433728	-0.050424839	1.0960271	0.18907856	0.30713334	0.90817499	-0.2354599	-0.019393399	0.8639079	0.25606883
254	1.012	0.061505371	0.041797416	-0.064496997	0.6082702	0.14477832	0.10517013	-0.069932432	0.070868664	-0.10109958	0.47018833	0.092367594	0.11449612	-0.067675167	0.093390166	-0.016527821	0.4926163	0.13618516	0.039542462	-0.14058155	0.04661261	-0.062075142	0.45090441	0.052125868	0.056879351	0.046516858	0.44287209	-0.13647544	0.31160265	0.46391031	0.14987066	0.038454792	0.42136762	-0.011460179	0.34405655	0.47827278	0.023856476	0.11552781	0.83371296	-0.19551196	0.14430292	0.84994343	0.18684884	0.17997769	0.94148318	-0.13139699	0.20773114	0.94445648	0.11513893	-0.0094759284	0.94580875	0.0075424842	0.15450017	1.4070004	-0.15148864	0.11286219	1.4017389	0.17074333	0.051924556	1.4372513	-0.0063600496	0.12375543	1.0604658	-0.21408774	-0.047196671	1.0959984	0.18955796	0.31711303	0.90901435	-0.23433166	-0.017374877	0.86377209	0.25689582
255	1.016	0.061540961	0.041799284	-0.064477068	0.62232406	0.14946357	0.10525831	-0.069805343	0.07115693	-0.10076966	0.48539078	0.094199627	0.11654706	-0.067183989	0.093684474	-0.016221921	0.50595406	0.13816174	0.041079511	-0.14053988	0.047194275	-0.061574596	0.46613165	0.053307558	0.059306057	0.049480204	0.4422305	-0.13621047	0.31851263	0.46228696	0.15101105	0.041856354	0.42080648	-0.011324792	0.35000698	0.47543378	0.023942552	0.11964652	0.83317238	-0.19533218	0.15205912	0.8480654	0.18715344	0.18476597	0.94062415	-0.13140069	0.21466766	0.94308891	0.11517986	-0.00025791852	0.94277631	0.0065825751	0.16012012	1.4054947	-0.15135976	0.1186401	1.4003089	0.17090719	0.057570317	1.4358255	-0.0061497621	0.13147347	1.0585706	-0.21381357	-0.043897499	1.0959178	0.19002605	0.32706366	0.90985972	-0.23316224	-0.015261563	0.86360595	0.2577084
